HIERARCHY
ROOT Hips
{
    OFFSET 0.000000 0.000000 0.000000
    CHANNELS 6 Xposition Yposition Zposition Zrotation Xrotation Yrotation
    JOINT Spine
    {
        OFFSET -0.000000 8.603107 0.000000
        CHANNELS 3 Zrotation Xrotation Yrotation
        JOINT Spine1
        {
            OFFSET -0.000000 23.906662 0.000000
            CHANNELS 3 Zrotation Xrotation Yrotation
            JOINT Neck
            {
                OFFSET -0.000000 23.808481 2.164407
                CHANNELS 3 Zrotation Xrotation Yrotation
                JOINT Head
                {
                    OFFSET -0.000000 14.688231 -2.098319
                    CHANNELS 3 Zrotation Xrotation Yrotation
                    End Site
                    {
                        OFFSET -0.000000 26.228985 0.000000
                    }
                }
            }
            JOINT LeftShoulder
            {
                OFFSET 4.178941 22.658146 -0.129871
                CHANNELS 3 Zrotation Xrotation Yrotation
                JOINT LeftArm
                {
                    OFFSET 9.497952 0.000000 0.000000
                    CHANNELS 3 Zrotation Xrotation Yrotation
                    JOINT LeftForeArm
                    {
                        OFFSET 38.855015 0.000000 0.000000
                        CHANNELS 3 Zrotation Xrotation Yrotation
                        JOINT LeftHand
                        {
                            OFFSET 24.940550 0.000000 0.000000
                            CHANNELS 3 Zrotation Xrotation Yrotation
                            End Site
                            {
                                OFFSET 15.737392 0.000000 0.000000
                            }
                        }
                    }
                }
            }
            JOINT RightShoulder
            {
                OFFSET -4.145384 22.658146 -0.129871
                CHANNELS 3 Zrotation Xrotation Yrotation
                JOINT RightArm
                {
                    OFFSET -9.497952 0.000000 0.000000
                    CHANNELS 3 Zrotation Xrotation Yrotation
                    JOINT RightForeArm
                    {
                        OFFSET -38.855015 0.000000 0.000000
                        CHANNELS 3 Zrotation Xrotation Yrotation
                        JOINT RightHand
                        {
                            OFFSET -24.940550 0.000000 0.000000
                            CHANNELS 3 Zrotation Xrotation Yrotation
                            End Site
                            {
                                OFFSET -15.737392 0.000000 0.000000
                            }
                        }
                    }
                }
            }
        }
    }
    JOINT LeftUpLeg
    {
        OFFSET 10.491594 0.000000 0.000000
        CHANNELS 3 Zrotation Xrotation Yrotation
        JOINT LeftLeg
        {
            OFFSET -0.000000 -46.080647 0.000000
            CHANNELS 3 Zrotation Xrotation Yrotation
            JOINT LeftFoot
            {
                OFFSET -0.000000 -50.184704 0.000000
                CHANNELS 3 Zrotation Xrotation Yrotation
                JOINT LeftToeBase
                {
                    OFFSET -0.000000 -6.819536 15.737392
                    CHANNELS 3 Zrotation Xrotation Yrotation
                    End Site
                    {
                        OFFSET -0.000000 0.000000 4.196638
                    }
                }
            }
        }
    }
    JOINT RightUpLeg
    {
        OFFSET -10.491594 0.000000 0.000000
        CHANNELS 3 Zrotation Xrotation Yrotation
        JOINT RightLeg
        {
            OFFSET -0.000000 -46.080647 0.000000
            CHANNELS 3 Zrotation Xrotation Yrotation
            JOINT RightFoot
            {
                OFFSET -0.000000 -50.184704 0.000000
                CHANNELS 3 Zrotation Xrotation Yrotation
                JOINT RightToeBase
                {
                    OFFSET -0.000000 -6.819536 15.737392
                    CHANNELS 3 Zrotation Xrotation Yrotation
                    End Site
                    {
                        OFFSET -0.000000 0.000000 4.196638
                    }
                }
            }
        }
    }
}
MOTION
Frames:    12
Frame Time:    0.008333
-15.837033    44.448578    42.919357    18.237432    -2.855404    89.299255    4.259496    50.029480    -0.599825    0.280676    -3.739924    1.397777    8.011188    -2.970187    4.968398    -4.563035    -14.663634    2.548249    7.259759    4.158479    -24.250912    -26.790359    36.007668    -40.915627    34.043159    -8.713392    -54.444164    -29.119242    4.565589    18.614922    2.606877    2.561163    5.111637    10.794195    38.399906    47.449631    -37.494308    -19.204550    62.663376    1.020205    4.344896    -10.950707    35.078270    -52.006702    24.246952    -177.046326    35.510437    156.413315    -3.379022    -45.355801    1.388838    0.000000    0.000000    0.000000    -29.591961    -50.179344    -12.423661    163.979126    36.317879    -135.354797    -13.007439    -45.172199    -8.722379    0.000000    0.000000    0.000000    
-15.846935    44.398949    42.943283    18.271206    -2.807208    89.327232    4.084454    50.034615    -0.464007    0.311428    -3.591004    1.452684    8.057045    -2.997669    4.902641    -4.522758    -14.797959    2.475433    7.254580    4.227007    -24.348104    -26.771383    35.873791    -40.959633    34.159557    -8.866223    -54.320793    -29.438374    4.377857    18.599133    2.660117    2.482727    5.005332    10.684470    38.422802    47.407501    -37.681995    -19.303318    62.831379    1.103154    4.445299    -11.171113    35.099018    -51.976704    24.114956    -177.090942    35.478760    155.639862    -3.016152    -45.407299    1.945585    0.000000    0.000000    0.000000    -29.651745    -50.209568    -12.493429    163.998505    36.199463    -135.235001    -13.231451    -45.118317    -9.062474    0.000000    0.000000    0.000000    
-15.844363    44.348598    42.961765    18.347685    -2.743843    89.331497    3.827779    50.085571    -0.260120    0.406133    -3.444652    1.541174    8.130147    -3.039233    4.846568    -4.658792    -14.903836    2.360637    7.175621    4.246986    -24.438974    -26.710224    35.793919    -41.003471    34.328304    -9.139603    -54.271599    -30.528669    3.927311    18.815544    2.631359    2.406251    4.848165    10.709132    38.364361    47.335945    -37.850021    -19.356794    63.062473    1.378646    4.592039    -11.418770    35.074844    -51.888363    23.996023    -177.106598    35.535969    156.018265    -3.596022    -45.447834    1.026108    0.000000    0.000000    0.000000    -29.688553    -50.215168    -12.487434    164.000977    36.084183    -135.077240    -13.977685    -44.849892    -9.994529    0.000000    0.000000    0.000000    
-15.828371    44.294952    42.974232    18.476753    -2.684132    89.342194    3.721877    50.231747    -0.174162    0.393343    -3.393723    1.582829    8.215014    -3.084040    4.796813    -4.828706    -14.885266    2.245697    7.049551    4.209905    -24.488644    -26.790949    35.713310    -40.873993    34.385414    -9.354728    -54.338699    -31.217594    3.599626    18.979374    2.609092    2.362544    4.759009    10.696589    38.390053    47.291565    -38.165623    -19.513256    63.161888    1.989664    4.638477    -11.575439    35.003548    -51.762867    23.852970    -177.186676    35.504086    155.569565    -3.487014    -45.479763    1.253816    0.000000    0.000000    0.000000    -29.703135    -50.163242    -12.450052    164.034027    35.955048    -134.975403    -14.238203    -44.752239    -10.344157    0.000000    0.000000    0.000000    
-15.826313    44.221458    42.982178    18.558422    -2.636131    89.377594    3.977361    50.390072    -0.393852    0.076941    -3.472875    1.480359    8.265230    -3.116218    4.797705    -4.777302    -14.778536    2.253472    6.891014    4.196735    -24.112251    -26.584082    35.834759    -41.009972    34.335651    -9.507612    -54.359825    -31.355879    3.428850    18.878651    2.702432    2.405577    4.912326    10.818217    38.348900    47.127819    -38.326817    -19.637178    63.322250    2.277031    4.672383    -11.682920    34.953274    -51.738518    23.777729    -177.244919    35.449833    155.444412    -3.468583    -45.509968    1.277331    0.000000    0.000000    0.000000    -29.768986    -50.151806    -12.447252    164.055527    35.807934    -134.879257    -14.482373    -44.697845    -10.637300    0.000000    0.000000    0.000000    
-15.833280    44.120956    42.983860    18.612766    -2.600510    89.443108    4.147761    50.429504    -0.514218    -0.121734    -3.409901    1.436045    8.303391    -3.170333    4.758535    -4.743152    -14.742965    2.212552    6.836765    4.375078    -24.057833    -26.425667    35.605999    -41.067543    34.416298    -9.676442    -54.511940    -31.758852    3.206748    19.173479    2.769731    2.402015    4.906190    10.846533    38.276577    47.029156    -38.358524    -19.782272    63.539310    2.326958    4.643087    -11.805948    34.912323    -51.789364    23.718597    -177.282120    35.332317    155.289230    -3.392626    -45.557388    1.420627    0.000000    0.000000    0.000000    -29.883228    -50.195679    -12.514511    164.109055    35.641293    -134.847488    -14.610268    -44.632759    -10.834682    0.000000    0.000000    0.000000    
-15.831752    44.018269    42.985756    18.672852    -2.583444    89.502365    4.126869    50.456081    -0.499199    -0.052458    -3.336388    1.444473    8.224775    -3.111087    4.695471    -4.793319    -14.860858    2.147036    6.694248    4.447477    -24.067242    -26.447414    35.408562    -41.010143    34.541607    -9.666938    -54.672630    -31.980259    3.203924    19.543961    2.629982    2.433016    4.860564    10.876385    38.164177    47.028217    -38.308586    -19.925615    63.715549    2.242514    4.551049    -11.864305    34.895782    -51.833641    23.698639    -177.298172    35.190315    155.120789    -3.148740    -45.600899    1.738516    0.000000    0.000000    0.000000    -29.939152    -50.223324    -12.584023    164.186768    35.508720    -134.965302    -14.633483    -44.631584    -10.886421    0.000000    0.000000    0.000000    
-15.827685    43.890652    42.993069    18.683441    -2.641258    89.538780    4.181774    50.376606    -0.487786    -0.033407    -3.203537    1.478852    8.125196    -3.229316    4.628449    -4.685835    -14.709897    2.121230    6.687217    4.352197    -24.117882    -26.733559    35.281071    -40.872860    34.812290    -9.481999    -54.756996    -32.308601    3.422762    19.875105    2.545146    2.404560    4.776535    10.890739    38.077568    47.029987    -38.074631    -20.096270    63.961376    2.143048    4.333180    -11.866008    35.053360    -51.939491    23.871925    -177.359436    34.990505    155.113770    -3.056037    -45.633579    1.943729    0.000000    0.000000    0.000000    -29.843086    -50.352402    -12.676949    164.324432    35.418182    -135.598679    -14.245164    -44.777363    -10.381629    0.000000    0.000000    0.000000    
-15.810506    43.789841    42.991089    18.844238    -2.617835    89.599312    4.222823    50.530167    -0.500856    -0.088669    -3.183127    1.490435    8.268167    -3.258687    4.588448    -4.903589    -14.633376    1.996953    6.637176    4.415380    -24.105053    -26.531868    35.238354    -40.988506    35.126675    -9.448913    -54.874123    -32.777145    3.463570    20.320730    2.556392    2.345374    4.651538    10.897556    38.011742    47.006283    -37.847099    -20.241472    64.164169    2.003944    4.128682    -11.847863    34.922253    -51.889656    23.813040    -177.380936    34.817200    155.115219    -2.806919    -45.683582    2.266688    0.000000    0.000000    0.000000    -29.835974    -50.259964    -12.591798    164.391205    35.286026    -135.624329    -14.238879    -44.799400    -10.387010    0.000000    0.000000    0.000000    
-15.811073    43.660473    42.988586    18.933443    -2.608838    89.724754    4.280643    50.555508    -0.528019    -0.057978    -3.067856    1.492694    8.273512    -3.363315    4.523769    -4.936873    -14.534252    1.916277    6.690294    4.394572    -24.237518    -26.615490    35.119083    -40.916439    35.402901    -9.452024    -55.060329    -33.057896    3.584776    20.517675    2.485511    2.173157    4.493159    10.961699    38.016758    46.998161    -37.644924    -20.395376    64.324707    1.881932    3.909379    -11.844748    34.792839    -51.984375    23.725574    -177.405151    34.599827    155.102356    -2.541306    -45.770935    2.608437    0.000000    0.000000    0.000000    -29.948273    -50.231171    -12.702436    164.499969    35.137356    -135.670029    -13.866997    -44.967045    -9.995222    0.000000    0.000000    0.000000    
-15.808207    43.515812    42.986507    19.007023    -2.606842    89.767433    4.414155    50.596226    -0.619050    -0.214744    -3.078493    1.462488    8.339487    -3.350211    4.505373    -4.902991    -14.439298    1.899198    6.796009    4.398090    -24.328453    -26.777386    35.044563    -40.743557    35.634754    -9.530265    -55.258362    -33.451038    3.596281    20.684233    2.570650    2.196768    4.481329    10.983652    37.916901    46.947643    -37.400139    -20.517424    64.422768    1.303124    3.709385    -11.749257    34.787472    -52.052910    23.787962    -177.533737    34.213474    152.868423    -0.255895    -45.801346    6.037832    0.000000    0.000000    0.000000    -30.008389    -50.280582    -12.676001    164.566559    34.950939    -135.682129    -13.819338    -44.982170    -9.965413    0.000000    0.000000    0.000000    
-15.786091    43.365479    42.990036    19.092417    -2.653845    89.763153    4.512663    50.655567    -0.710912    -0.223028    -3.134013    1.419768    8.268501    -3.207534    4.517154    -4.963902    -14.495279    1.916119    6.615742    4.458858    -24.165913    -26.655249    35.123703    -40.644848    35.778389    -9.696484    -55.516476    -33.717796    3.550467    20.744328    2.442269    2.236479    4.657921    11.241174    37.803333    46.814251    -37.166962    -20.664583    64.595551    1.359473    3.458299    -11.938464    34.899178    -52.080582    23.934124    -177.526047    33.946537    153.206604    -0.220848    -45.826534    6.034054    0.000000    0.000000    0.000000    -29.948189    -50.334206    -12.546562    164.622589    34.757027    -135.659576    -13.728344    -45.008595    -9.914763    0.000000    0.000000    0.000000    
